<svg width="199" height="24" viewBox="0 0 199 24" fill="none" xmlns="http://www.w3.org/2000/svg">
<g clip-path="url(#clip0)">
<path d="M2.00006 14.0001C0.895491 12.8955 0.895487 11.1046 2.00005 10.0001C3.10462 8.89549 4.89547 8.89549 6.00004 10.0001L14.0001 18.0001C15.1046 19.1046 15.1046 20.8955 14.0001 22.0001C12.8955 23.1046 11.1046 23.1046 10 22.0001L2.00006 14.0001Z" fill="white"/>
<path d="M14.0001 22C12.8955 23.1046 11.1046 23.1046 10.0001 22C8.89549 20.8955 8.89549 19.1046 10.0001 18.0001L18.0001 10.0001C19.1047 8.89549 20.8955 8.89549 22.0001 10.0001C23.1046 11.1046 23.1046 12.8955 22.0001 14.0001L14.0001 22Z" fill="white"/>
<path d="M11.9925 7.46704C13.7004 7.46704 15.085 6.08254 15.085 4.37464C15.085 2.66675 13.7004 1.28223 11.9925 1.28223C10.2846 1.28223 8.90015 2.66675 8.90015 4.37464C8.90015 6.08254 10.2846 7.46704 11.9925 7.46704Z" fill="#FBC91B"/>
<path d="M41.4225 3.38343H45.8805C45.9315 3.37568 45.9837 3.37985 46.0328 3.39558C46.0823 3.41133 46.1269 3.43823 46.164 3.47418C46.2012 3.51014 46.2297 3.55419 46.2469 3.60288C46.2642 3.65158 46.2702 3.70362 46.2638 3.75494V20.2689C46.2638 20.4966 46.1322 20.6164 45.8805 20.6164H41.5185C41.4098 20.6143 41.3033 20.5831 41.2107 20.5263C41.118 20.4694 41.0423 20.3888 40.9909 20.2929L36.653 12.5152V20.2689C36.653 20.4966 36.5212 20.6164 36.2695 20.6164H31.8475C31.8003 20.6179 31.7532 20.6091 31.7098 20.5904C31.6663 20.5718 31.6274 20.5438 31.5959 20.5086C31.5649 20.4769 31.5405 20.4394 31.524 20.3983C31.5075 20.3572 31.4994 20.3132 31.5 20.2689V3.75494C31.5 3.50327 31.6199 3.38343 31.8475 3.38343H36.1737C36.2914 3.37 36.4104 3.39404 36.5136 3.45214C36.6169 3.51023 36.6992 3.59941 36.7489 3.707L41.0869 11.4726V3.75494C41.0877 3.70508 41.0985 3.6559 41.1192 3.61051C41.1398 3.56512 41.1698 3.52452 41.2069 3.49129C41.2628 3.42984 41.3397 3.39141 41.4225 3.38343Z" fill="#FBC91B"/>
<path d="M64.4913 20.6165H59.53C59.4209 20.6242 59.3121 20.5971 59.2195 20.5389C59.1269 20.4807 59.0552 20.3946 59.0147 20.2929L58.2719 17.6684H53.5742L52.8189 20.2929C52.7751 20.3945 52.7008 20.48 52.6063 20.5378C52.5122 20.5957 52.4023 20.6232 52.2917 20.6165H47.3424C47.2884 20.6367 47.2288 20.6367 47.1748 20.6165C47.1515 20.5979 47.1328 20.5741 47.1204 20.5471C47.108 20.52 47.102 20.4905 47.1028 20.4607C47.0953 20.4251 47.0953 20.3884 47.1028 20.3528L52.7593 3.70706C52.8145 3.59868 52.9015 3.50968 53.0083 3.45188C53.1152 3.39409 53.2375 3.37023 53.3582 3.38349H58.4635C58.5846 3.36847 58.7072 3.39156 58.8149 3.44955C58.9221 3.50754 59.0087 3.59755 59.0627 3.70706L64.7069 20.2929V20.3888C64.7073 20.4464 64.6859 20.5021 64.6469 20.5446C64.6056 20.5869 64.5501 20.6126 64.4913 20.6165ZM54.5687 14.0852H57.265L55.9108 9.29159L54.5687 14.0852Z" fill="#FBC91B"/>
<path d="M64.8267 8.57249C64.8091 7.54645 65.0832 6.53654 65.6176 5.66035C66.1508 4.8046 66.9211 4.12192 67.8346 3.69499C68.8733 3.21212 70.0088 2.97431 71.1541 2.99992C72.1332 3.0156 73.1037 3.18546 74.0299 3.50324C74.9955 3.80429 75.9116 4.24431 76.7501 4.80951C76.9061 4.90536 76.9898 5.00125 76.9898 5.1091C77.0066 5.15148 77.0066 5.19858 76.9898 5.24091L75.42 8.83615C75.42 9.00393 75.2764 9.09978 75.1564 9.09978C75.0938 9.11714 75.0274 9.11714 74.9648 9.09978C73.8953 8.37258 72.681 7.88605 71.4057 7.67369C71.0806 7.66829 70.7603 7.75559 70.4828 7.92535C70.3759 7.98835 70.2871 8.07753 70.2241 8.18444C70.1611 8.29135 70.1266 8.41252 70.1232 8.53653C70.1232 8.96797 70.7344 9.36742 71.9569 9.73495C73.1835 10.1512 74.3333 10.7667 75.36 11.5565C75.9349 11.9779 76.3928 12.5389 76.6905 13.1863C77.0348 13.8956 77.211 14.6748 77.2058 15.4633C77.2226 16.4888 76.9391 17.4968 76.3909 18.3634C75.8453 19.2165 75.0623 19.8914 74.1379 20.3049C73.08 20.7811 71.9303 21.0184 70.7704 20.9999C69.7193 20.9973 68.6742 20.844 67.6666 20.5445C66.797 20.3058 65.9828 19.8986 65.27 19.3461C65.1024 19.2263 65.0304 19.1064 65.0304 19.0106C65.0165 18.976 65.0165 18.9373 65.0304 18.9027L66.6001 15.3674C66.6601 15.1877 66.7441 15.1038 66.8517 15.1038C66.9248 15.1095 66.995 15.1344 67.0557 15.1757C68.1158 15.8175 69.3004 16.226 70.5308 16.3741C70.8661 16.3849 71.1964 16.2929 71.4777 16.1104C71.5872 16.0407 71.6783 15.9454 71.7432 15.8326C71.8077 15.7199 71.844 15.5932 71.8489 15.4633C71.8489 15.0319 71.2141 14.6124 70.0036 14.193C68.8032 13.7821 67.6722 13.1922 66.6481 12.4433C66.0893 12.0115 65.6416 11.4528 65.342 10.8135C64.9932 10.1185 64.8166 9.34998 64.8267 8.57249Z" fill="#FBC91B"/>
<path d="M94.3303 20.6166H89.381C89.2704 20.625 89.1598 20.5983 89.0653 20.5402C88.9704 20.4821 88.8965 20.3956 88.8538 20.293L88.1109 17.6685H83.4133L82.6584 20.293C82.6142 20.3945 82.5399 20.48 82.4458 20.5379C82.3513 20.5958 82.2414 20.6232 82.1312 20.6166H77.1939C77.1354 20.6366 77.0724 20.6366 77.0139 20.6166C76.9906 20.598 76.9723 20.5742 76.9595 20.5471C76.9471 20.5201 76.9411 20.4905 76.9423 20.4607C76.9423 20.4607 76.9423 20.3769 76.9423 20.3529L82.6104 3.70706C82.6622 3.59852 82.7465 3.50892 82.8519 3.45088C82.9573 3.39284 83.078 3.36927 83.1977 3.38349H88.3025C88.4237 3.36847 88.5467 3.39156 88.6539 3.44955C88.7612 3.50754 88.8482 3.59755 88.9018 3.70706L94.5463 20.293V20.3889C94.5467 20.4465 94.5253 20.5022 94.4863 20.5446C94.445 20.587 94.3895 20.6126 94.3303 20.6166ZM84.4082 14.0852H87.1044L85.7503 9.29161L84.4082 14.0852Z" fill="white"/>
<path d="M102.659 20.976C101.088 21.0054 99.5366 20.6166 98.1653 19.8495C96.8704 19.1132 95.8204 18.0131 95.1454 16.6857C94.4074 15.2233 94.041 13.6017 94.0785 11.964C94.0425 10.3304 94.4085 8.71294 95.1454 7.25434C95.8253 5.9394 96.8749 4.85212 98.1653 4.1265C99.5347 3.35394 101.087 2.9648 102.659 3C104.515 2.97166 106.34 3.47481 107.92 4.45005C108.087 4.53394 108.171 4.62982 108.171 4.76164C108.182 4.80896 108.182 4.85812 108.171 4.90545L106.494 8.36884C106.474 8.43649 106.432 8.49604 106.377 8.53909C106.321 8.5821 106.252 8.6064 106.182 8.6085H106.014C105.124 8.12959 104.125 7.89007 103.114 7.91344C102.42 7.89701 101.735 8.07551 101.137 8.42876C100.566 8.76154 100.104 9.25275 99.807 9.84289C99.4841 10.5111 99.324 11.2461 99.3394 11.988C99.3255 12.7336 99.4852 13.4722 99.807 14.1451C100.095 14.743 100.548 15.246 101.113 15.5952C101.707 15.9469 102.388 16.1253 103.078 16.1105C104.093 16.1399 105.098 15.9001 105.99 15.4154C106.05 15.4074 106.11 15.4074 106.17 15.4154C106.302 15.4154 106.398 15.4993 106.47 15.6671L108.195 19.0945C108.206 19.1419 108.206 19.191 108.195 19.2383C108.195 19.3582 108.111 19.4541 107.944 19.5379C106.356 20.5128 104.522 21.0119 102.659 20.976Z" fill="white"/>
<path d="M126.039 20.6165H121.078C120.969 20.6242 120.86 20.5971 120.767 20.5389C120.675 20.4807 120.603 20.3946 120.563 20.2929L119.82 17.6684H115.122L114.367 20.2929C114.323 20.3945 114.249 20.48 114.154 20.5378C114.06 20.5957 113.95 20.6232 113.84 20.6165H108.891C108.837 20.6367 108.777 20.6367 108.723 20.6165C108.7 20.5979 108.681 20.5741 108.669 20.5471C108.656 20.52 108.65 20.4905 108.651 20.4607C108.643 20.4251 108.643 20.3884 108.651 20.3528L114.307 3.70706C114.362 3.59868 114.449 3.50968 114.556 3.45188C114.664 3.39409 114.785 3.37023 114.906 3.38349H120.011C120.133 3.36847 120.255 3.39156 120.363 3.44955C120.47 3.50754 120.557 3.59755 120.611 3.70706L126.255 20.2929V20.3888C126.273 20.4391 126.273 20.4943 126.255 20.5446C126.228 20.5735 126.194 20.5952 126.156 20.6078C126.118 20.6203 126.078 20.6233 126.039 20.6165ZM116.117 14.0852H118.813L117.459 9.29159L116.117 14.0852Z" fill="white"/>
<path d="M127.525 3.3835H133.361C134.964 3.34763 136.551 3.71434 137.975 4.45006C139.284 5.12514 140.361 6.17705 141.067 7.47005C141.821 8.85031 142.201 10.4036 142.169 11.9761C142.202 13.5524 141.822 15.1098 141.067 16.494C140.359 17.7915 139.283 18.8506 137.975 19.538C136.552 20.2778 134.965 20.6487 133.361 20.6165H127.525C127.481 20.6156 127.437 20.6043 127.397 20.5835C127.358 20.5627 127.324 20.533 127.297 20.4967C127.26 20.4635 127.231 20.4228 127.21 20.3775C127.189 20.3321 127.178 20.2829 127.178 20.233V3.755C127.184 3.65541 127.226 3.5616 127.297 3.49136C127.322 3.45496 127.357 3.42582 127.397 3.40688C127.437 3.38795 127.481 3.37989 127.525 3.3835ZM132.319 7.87753V16.1105H133.613C134.215 16.1238 134.806 15.9478 135.303 15.6072C135.837 15.2484 136.254 14.7398 136.501 14.1452C136.776 13.46 136.911 12.7263 136.896 11.988C136.911 11.2498 136.776 10.5161 136.501 9.8309C136.25 9.24174 135.834 8.738 135.303 8.38085C134.806 8.04031 134.215 7.86425 133.613 7.87753H132.319Z" fill="white"/>
<path d="M148.688 13.9893V16.1104H155.507C155.77 16.1104 155.89 16.2303 155.878 16.446V20.2689C155.873 20.3559 155.835 20.4376 155.77 20.4966C155.738 20.535 155.698 20.5657 155.652 20.5864C155.607 20.6072 155.557 20.6174 155.507 20.6164H143.883C143.679 20.6164 143.547 20.4966 143.499 20.233V3.73095C143.499 3.49128 143.607 3.38342 143.835 3.38342H155.207C155.311 3.3784 155.414 3.41259 155.495 3.47929C155.529 3.51175 155.556 3.55079 155.574 3.59405C155.593 3.63731 155.602 3.68389 155.602 3.73095V7.50591C155.602 7.75758 155.471 7.87743 155.207 7.87743H148.688V9.8428H153.985C154.03 9.84138 154.075 9.85038 154.117 9.86905C154.159 9.88772 154.195 9.91566 154.224 9.95065C154.257 9.97847 154.281 10.0139 154.296 10.0537C154.31 10.0935 154.315 10.1364 154.308 10.1784L153.961 13.6777C153.955 13.7275 153.939 13.7756 153.914 13.8188C153.889 13.8621 153.855 13.8996 153.814 13.9289C153.774 13.9583 153.727 13.9788 153.678 13.9892C153.629 13.9996 153.579 13.9996 153.529 13.9893H148.688Z" fill="white"/>
<path d="M171.445 3.38354H176.67C176.898 3.38354 177.018 3.50338 177.018 3.75505V20.269C177.012 20.3561 176.974 20.4377 176.91 20.4967C176.883 20.5354 176.847 20.5667 176.805 20.5877C176.763 20.6087 176.717 20.6186 176.67 20.6166H172.044C171.946 20.6146 171.852 20.5762 171.781 20.5087C171.715 20.4441 171.673 20.3599 171.661 20.269V12.9228L169.156 20.2331C169.107 20.3578 169.018 20.4629 168.903 20.5322C168.789 20.6015 168.654 20.6312 168.521 20.6166H165.777C165.645 20.6326 165.511 20.6034 165.398 20.5337C165.285 20.4641 165.199 20.3581 165.154 20.2331L162.625 12.9228V20.269C162.622 20.3133 162.61 20.3566 162.59 20.3958C162.569 20.4351 162.54 20.4695 162.505 20.4967C162.473 20.5351 162.433 20.5658 162.387 20.5865C162.341 20.6073 162.292 20.6176 162.241 20.6166H157.616C157.571 20.6164 157.526 20.6066 157.485 20.5881C157.443 20.5695 157.406 20.5424 157.376 20.5087C157.345 20.4771 157.321 20.4396 157.304 20.3984C157.288 20.3573 157.28 20.3133 157.28 20.269V3.75505C157.28 3.50338 157.388 3.38354 157.616 3.38354H162.841C163.015 3.37402 163.188 3.41541 163.339 3.50266C163.49 3.5899 163.613 3.71924 163.692 3.8749L167.155 13.4621L170.594 3.8749C170.673 3.71924 170.796 3.5899 170.946 3.50266C171.097 3.41541 171.271 3.37402 171.445 3.38354Z" fill="white"/>
<path d="M188.486 3.38352H193.687C193.768 3.38178 193.848 3.40705 193.914 3.45542C193.943 3.47588 193.967 3.50278 193.983 3.53398C194 3.56518 194.009 3.59983 194.01 3.63518C194.029 3.6813 194.029 3.73287 194.01 3.77899L188.378 13.7856V20.3289C188.375 20.3732 188.363 20.4164 188.343 20.4557C188.322 20.495 188.293 20.5293 188.258 20.5566C188.226 20.5957 188.186 20.6268 188.14 20.6477C188.095 20.6685 188.045 20.6783 187.995 20.6764H183.609C183.56 20.6767 183.511 20.6673 183.466 20.6488C183.421 20.6303 183.38 20.603 183.345 20.5686C183.276 20.5071 183.233 20.4212 183.225 20.3289V13.7856L177.701 3.77899C177.682 3.73287 177.682 3.6813 177.701 3.63518C177.704 3.60036 177.714 3.56653 177.731 3.53567C177.747 3.5048 177.769 3.47753 177.797 3.45542C177.863 3.40856 177.943 3.38345 178.024 3.38352H183.213C183.339 3.37725 183.464 3.41257 183.567 3.48403C183.671 3.55548 183.749 3.65912 183.788 3.77899L185.837 8.27298L187.851 3.77899C187.896 3.65079 187.983 3.5418 188.099 3.46994C188.214 3.39807 188.351 3.3676 188.486 3.38352Z" fill="white"/>
<path d="M196.467 20.976C196.088 20.9756 195.714 20.8852 195.377 20.7123C195.061 20.5405 194.796 20.2884 194.609 19.9813C194.426 19.6558 194.331 19.2882 194.334 18.9147C194.328 18.5333 194.423 18.1571 194.609 17.8242C194.793 17.5112 195.058 17.2543 195.377 17.0811C195.714 16.9082 196.088 16.8179 196.467 16.8175C196.843 16.8165 197.213 16.907 197.546 17.0811C197.87 17.2504 198.14 17.508 198.325 17.8242C198.511 18.1571 198.606 18.5333 198.6 18.9147C198.603 19.2882 198.508 19.6558 198.325 19.9813C198.136 20.2914 197.867 20.5442 197.546 20.7123C197.213 20.8864 196.843 20.977 196.467 20.976Z" fill="#FBC91B"/>
</g>
<defs>
<clipPath id="clip0">
<rect width="198.6" height="24" fill="white"/>
</clipPath>
</defs>
</svg>
